<svg id="_0005_businessman" xmlns="http://www.w3.org/2000/svg" viewBox="0 0 500 500" data-imageid="businessman-76" imageName="Businessman" class="illustrations_image" style="width: 166px;"><defs><style>.cls-1_businessman-76{opacity:.45;}.cls-1_businessman-76,.cls-2_businessman-76{fill:#e6e6e6;}.cls-3_businessman-76,.cls-4_businessman-76,.cls-5_businessman-76{fill:#fff;}.cls-6_businessman-76{fill:#f4a28c;}.cls-7_businessman-76{fill:#a5a5a5;}.cls-8_businessman-76{fill:#c9c9c9;}.cls-9_businessman-76{fill:#ce8172;opacity:.31;}.cls-4_businessman-76{opacity:.2;}.cls-10_businessman-76{fill:#24285b;}.cls-11_businessman-76{fill:#000001;opacity:.08;}.cls-12_businessman-76{fill:#dd8b7a;}.cls-5_businessman-76{opacity:.58;}.cls-13_businessman-76{fill:#ffd200;}.cls-14_businessman-76{fill:#68e1fd;}</style></defs><g id="bg_businessman-76"><polygon class="cls-2_businessman-76" points="51.55 365.51 51.55 192.98 139.88 192.98 139.88 101.39 194.64 31.49 253.95 101.39 253.95 165.12 253.95 245.67 286.42 245.67 286.42 115.8 375.53 165.12 375.53 277.57 448.45 277.57 448.45 364.53 51.55 365.51"/><rect class="cls-7_businessman-76" x="165.31" y="114.33" width="8.83" height="220.84"/><rect class="cls-8_businessman-76" x="191.33" y="114.33" width="8.83" height="220.84"/><rect class="cls-7_businessman-76" x="218.17" y="114.33" width="8.83" height="220.84"/><rect class="cls-7_businessman-76" x="306.12" y="183.45" width="51.43" height="9.43"/><rect class="cls-7_businessman-76" x="306.12" y="215.41" width="51.43" height="9.43"/><rect class="cls-7_businessman-76" x="306.12" y="245.52" width="51.43" height="9.43"/><rect class="cls-7_businessman-76" x="306.12" y="276.52" width="51.43" height="9.43"/><path class="cls-7_businessman-76" d="m471.61,368.12H28.39c-1.98,0-3.59-1.61-3.59-3.59s1.61-3.59,3.59-3.59h443.23c1.98,0,3.59,1.61,3.59,3.59s-1.61,3.59-3.59,3.59Z"/><rect class="cls-7_businessman-76" x="71.33" y="219.45" width="11.5" height="47.03"/><rect class="cls-7_businessman-76" x="105.68" y="219.45" width="11.5" height="47.03"/><rect class="cls-7_businessman-76" x="71.33" y="288.15" width="11.5" height="47.03"/><rect class="cls-7_businessman-76" x="105.68" y="288.15" width="11.5" height="47.03"/><rect class="cls-7_businessman-76" x="417.43" y="300.33" width="31.03" height="34.84"/></g><ellipse id="sd_businessman-76" class="cls-1_businessman-76" cx="238.72" cy="450.17" rx="121.84" ry="18.34"/><g id="businessman_businessman-76"><path class="cls-14_businessman-76 targetColor" d="m272.15,164.69s17.07,4.16,26.4,44.15c9.33,39.99,38.66,96.01,38.66,96.01l-19.68,12.58s-28.58-18.61-46.77-81.26c-18.19-62.65,1.39-71.48,1.39-71.48Z" style="fill: rgb(135, 221, 253);"/><path class="cls-11_businessman-76" d="m272.15,164.69s17.07,4.16,26.4,44.15c9.33,39.99,38.66,96.01,38.66,96.01l-19.68,12.58s-28.58-18.61-46.77-81.26c-18.19-62.65,1.39-71.48,1.39-71.48Z"/><path class="cls-6_businessman-76" d="m215.91,105.89s5.74,12.16,6.72,21.3c.4,3.71-2.33,7.08-6.05,7.43-4.61.43-10.97-.34-14.83-6.48l-7.84-9.62s-4.7-6.2.51-13.95c5.22-7.74,18.37-6.26,21.49,1.32Z"/><polygon class="cls-6_businessman-76" points="196.85 120.73 194.19 157.73 218.04 164.69 210.75 133.51 196.85 120.73"/><path class="cls-10_businessman-76" d="m212.97,107.58c-2.16.93-6.21,2.41-11.96,3.41,0,0,5.97,4.03,4.27,11.54-1.71,7.51-9.08,7.24-9.08,7.24l-5.79-16.28c-1.84-4.69-.98-10.02,2.27-13.86,1.33-1.57,2.84-3.2,4.43-4.64,3.97-3.6,11.96-3.01,14.97-7.71,1.32-2.06,4.38-1.94,5.56.21,2.55,4.66,4.54,12.74-1.13,17.9-1.04.94-2.27,1.64-3.55,2.19Z"/><path class="cls-6_businessman-76" d="m206.5,121.65s-1.89-4.82-5.4-3.1c-3.51,1.72-.82,8.71,4.38,7.53l1.02-4.43Z"/><path class="cls-6_businessman-76" d="m219.13,113.74l5.31,3.56c1.31.88,1.26,2.82-.09,3.64l-4.49,2.69-.73-9.89Z"/><path class="cls-9_businessman-76" d="m210.96,134.39s-5.15-.88-7.93-3.8c0,0-1.58,9.52,10.02,12.73l-2.09-8.93Z"/><polygon class="cls-14_businessman-76 targetColor" points="205.63 159.54 193.42 151.54 186.33 159.56 195.98 169.45 205.63 159.54" style="fill: rgb(135, 221, 253);"/><polygon class="cls-14_businessman-76 targetColor" points="222.88 159.56 215.79 151.54 204.61 158.87 193.42 151.54 186.33 159.56 195.98 169.45 204.61 160.59 213.23 169.45 222.88 159.56" style="fill: rgb(135, 221, 253);"/><path class="cls-14_businessman-76 targetColor" d="m167.15,162.82s-48.66,12.65-55.02,50.34c-6.36,37.69,25.43,43.28,46.25,24.09,20.81-19.19,8.78-74.43,8.78-74.43Z" style="fill: rgb(135, 221, 253);"/><path class="cls-11_businessman-76" d="m167.15,162.82s-48.66,12.65-55.02,50.34c-6.36,37.69,25.43,43.28,46.25,24.09,20.81-19.19,8.78-74.43,8.78-74.43Z"/><path class="cls-14_businessman-76 targetColor" d="m193.86,159.81c22.82-2.23,48.49-3.49,70.13,1.6,12.67,2.98,21.87,13.94,22.32,26.94.98,28.83-.17,84.74-20,125.63l-75.13,9.79s-31.47-46.55-44.61-96.14c-8.56-32.32,14.02-64.57,47.3-67.83Z" style="fill: rgb(135, 221, 253);"/><polygon class="cls-14_businessman-76 targetColor" points="203.58 159.54 215.79 151.54 222.88 159.56 213.23 169.45 203.58 159.54" style="fill: rgb(135, 221, 253);"/><path class="cls-11_businessman-76" d="m192.54,169.45s-16.79,116.33,48.8,147.79l-50.17,6.54s-29.94-45.03-40.38-80.93l41.75-73.4Z"/><polygon class="cls-3_businessman-76" points="222.88 159.56 215.79 151.54 204.61 158.87 193.42 151.54 186.33 159.56 195.98 169.45 204.61 160.59 213.23 169.45 222.88 159.56"/><path class="cls-14_businessman-76 targetColor" d="m128.7,211.85l54.64-69.69,12.64,9.38s-12.96,92.65-54.19,90.4c-14.8-.81-22.24-18.43-13.09-30.09Z" style="fill: rgb(135, 221, 253);"/><path class="cls-4_businessman-76" d="m128.7,211.85l54.64-69.69,12.64,9.38s-12.96,92.65-54.19,90.4c-14.8-.81-22.24-18.43-13.09-30.09Z"/><rect class="cls-13_businessman-76" x="180.84" y="122.18" width="37.64" height="20.32" transform="translate(162.69 -104.32) rotate(47.58)"/><path class="cls-6_businessman-76" d="m184.64,143.12s2.48-7.71,6.65-12.96c2.69-3.39,7.75-3.6,10.64-.4l2.39,2.64c1.52,1.69,1.32,4.31-.48,5.71-2.85,2.21-6.53,6.33-7.86,13.43l-11.34-8.42Z"/><path class="cls-13_businessman-76" d="m318.49,349.73l-2.25-13.72c-.85-5.2,2.69-10.13,7.88-10.98l16.63-2.73c5.19-.85,10.12,2.69,10.98,7.89l2.25,13.72-5.31.87-2.25-13.72c-.37-2.27-2.52-3.81-4.79-3.44l-16.63,2.73c-2.27.37-3.81,2.52-3.44,4.79l2.25,13.72-5.31.87Z"/><path class="cls-5_businessman-76" d="m318.49,349.73l-2.25-13.72c-.85-5.2,2.69-10.13,7.88-10.98l16.63-2.73c5.19-.85,10.12,2.69,10.98,7.89l2.25,13.72-5.31.87-2.25-13.72c-.37-2.27-2.52-3.81-4.79-3.44l-16.63,2.73c-2.27.37-3.81,2.52-3.44,4.79l2.25,13.72-5.31.87Z"/><rect class="cls-13_businessman-76" x="297.61" y="338.95" width="86.33" height="65.91" transform="translate(-55.68 60.03) rotate(-9.31)"/><polygon class="cls-11_businessman-76" points="295.52 362.7 386.83 385.99 388.7 397.44 303.51 411.41 295.52 362.7"/><rect class="cls-3_businessman-76" x="241.34" y="192.77" width="25.94" height="6.51"/><path class="cls-14_businessman-76 targetColor" d="m187.22,435.61s-2.34,7.81,2.88,12.39c5.22,4.59,2.65,11.12-3.4,8.83-6.06-2.28-14.22-18.27-14.22-18.27l6.31-7.77,8.43,4.82Z" style="fill: rgb(135, 221, 253);"/><path class="cls-6_businessman-76" d="m324.04,330.07s2.62,5.5,9,4.87c6.37-.62,10.12-5.62,8.12-9.12-2-3.5-16.37-1-17.12,4.25Z"/><path class="cls-12_businessman-76" d="m324.04,330.07s2.62,5.5,9,4.87c6.37-.62,10.12-5.62,8.12-9.12-2-3.5-16.37-1-17.12,4.25Z"/><path class="cls-10_businessman-76" d="m191.17,323.78s5.96,51.23-2.26,72.69c-8.22,21.46-14.33,32.99-14.33,32.99l16.59,9.87s23.04-26.07,35.39-49.96,12-57.88,12-57.88l-47.39-7.71Z"/><path class="cls-11_businessman-76" d="m191.17,323.78s5.96,51.23-2.26,72.69c-8.22,21.46-14.33,32.99-14.33,32.99l16.59,9.87s23.04-26.07,35.39-49.96,12-57.88,12-57.88l-47.39-7.71Z"/><path class="cls-10_businessman-76" d="m266.31,313.99s17.87,91.17,26.54,126.11l-14.79,6.69s-33.97-71.98-55.17-96.64c-21.2-24.66-31.71-26.37-31.71-26.37l75.13-9.79Z"/><path class="cls-14_businessman-76 targetColor" d="m289.26,441.86s4.94,6.48,11.72,4.96c6.78-1.52,10.55,4.39,5.14,7.95-5.41,3.56-23.14.75-23.14.75l-2.58-9.67,8.86-3.99Z" style="fill: rgb(135, 221, 253);"/><path class="cls-6_businessman-76" d="m334.27,306.73s3.81,5.28,7.77,12.26c3.96,6.97.83,11.5-2.17,10.16-3-1.33-8.5-5.37-8.5-5.37l-8.16,1.09-3.44-8.87,14.5-9.27Z"/></g></svg>